<svg xmlns="http://www.w3.org/2000/svg" viewBox="0 0 320 400" fill="#FFFFFF">
  <!-- Baby handprint - realistic silhouette -->
  <!-- Palm -->
  <path d="M160,390 C120,390 85,370 70,340 C55,310 50,275 55,245 C58,225 65,210 75,195 C85,180 95,170 105,165 C100,160 90,150 85,135 C80,120 82,105 90,95 C98,85 110,82 120,88 C125,91 128,97 130,105 L135,125 C130,115 122,105 118,100 C114,95 118,92 122,95 C130,102 138,120 142,135 C142,125 140,110 135,95 C130,80 130,65 138,55 C146,45 158,43 168,50 C175,55 178,65 178,78 L175,120 C175,105 178,85 178,72 C178,60 182,55 188,58 C194,62 196,78 195,95 L190,140 C192,125 196,105 200,90 C204,75 210,62 220,58 C230,54 240,60 245,72 C250,84 248,100 242,118 L225,165 C235,155 248,148 258,155 C268,162 272,178 268,195 C264,212 252,225 240,240 C228,255 220,275 215,300 C210,325 200,355 185,375 C175,385 168,390 160,390Z" opacity="0.95"/>
</svg>
